STARTFONT 2.1
COMMENT /**********
COMMENT /* Created for MAX7219 8x8 display matrix
COMMENT /*
COMMENT /* 2026
COMMENT /* Roel Gloudemans
COMMENT /**********
FONT -misc-8x8MatrixFont-Medium-R-Normal--8-80-72-72-C-60-ISO10646-1
SIZE 8 72 72
FONTBOUNDINGBOX 6 9 0 -1
STARTPROPERTIES 20
FAMILY_NAME "8x8MatrixFont"
WEIGHT_NAME "Medium"
FONT_VERSION "1.0"
FOUNDRY "misc"
SLANT "R"
SETWIDTH_NAME "Normal"
PIXEL_SIZE 8
POINT_SIZE 80
RESOLUTION_X 72
RESOLUTION_Y 72
SPACING "C"
AVERAGE_WIDTH 60
CHARSET_REGISTRY "ISO10646"
CHARSET_ENCODING "1"
MIN_SPACE 6
FONT_DESCENT 0
FONT_ASCENT 8
COPYRIGHT "2026, Roel Gloudemans"
DEFAULT_CHAR 32
_GBDFED_INFO "Edited with gbdfed 1.6."
ENDPROPERTIES
CHARS 174
STARTCHAR SPACE
ENCODING 32
SWIDTH 750 0
DWIDTH 6 0
BBX 6 9 0 -1
BITMAP
00
00
00
00
00
00
00
00
00
ENDCHAR
STARTCHAR char33
ENCODING 33
SWIDTH 750 0
DWIDTH 6 0
BBX 6 9 0 -1
BITMAP
00
08
38
F0
C8
38
F0
C0
00
ENDCHAR
STARTCHAR char34
ENCODING 34
SWIDTH 750 0
DWIDTH 6 0
BBX 6 9 0 -1
BITMAP
98
D8
78
38
00
00
00
00
00
ENDCHAR
STARTCHAR char36
ENCODING 36
SWIDTH 750 0
DWIDTH 6 0
BBX 6 9 0 -1
BITMAP
A0
F8
F8
A8
18
30
60
C0
00
ENDCHAR
STARTCHAR char39
ENCODING 39
SWIDTH 750 0
DWIDTH 6 0
BBX 6 9 0 -1
BITMAP
38
30
30
30
00
00
00
00
00
ENDCHAR
STARTCHAR char40
ENCODING 40
SWIDTH 750 0
DWIDTH 6 0
BBX 6 9 0 -1
BITMAP
18
18
18
78
78
18
18
18
00
ENDCHAR
STARTCHAR char41
ENCODING 41
SWIDTH 750 0
DWIDTH 6 0
BBX 6 9 0 -1
BITMAP
60
60
60
78
78
60
60
60
00
ENDCHAR
STARTCHAR char43
ENCODING 43
SWIDTH 750 0
DWIDTH 6 0
BBX 6 9 0 -1
BITMAP
00
20
20
20
F8
20
20
20
00
ENDCHAR
STARTCHAR COMMA
ENCODING 44
SWIDTH 750 0
DWIDTH 6 0
BBX 6 9 0 -1
BITMAP
00
00
00
00
18
18
18
18
00
ENDCHAR
STARTCHAR HYPHEN-MINUS
ENCODING 45
SWIDTH 750 0
DWIDTH 6 0
BBX 6 9 0 -1
BITMAP
78
78
00
00
00
00
00
00
00
ENDCHAR
STARTCHAR FULL STOP
ENCODING 46
SWIDTH 750 0
DWIDTH 6 0
BBX 6 9 0 -1
BITMAP
00
00
00
00
D8
D8
D8
D8
00
ENDCHAR
STARTCHAR SOLIDUS
ENCODING 47
SWIDTH 750 0
DWIDTH 6 0
BBX 6 9 0 -1
BITMAP
18
18
18
30
60
C0
C0
C0
00
ENDCHAR
STARTCHAR DIGIT ZERO
ENCODING 48
SWIDTH 750 0
DWIDTH 6 0
BBX 6 9 0 -1
BITMAP
C0
C0
00
00
00
00
00
00
00
ENDCHAR
STARTCHAR DIGIT ONE
ENCODING 49
SWIDTH 750 0
DWIDTH 6 0
BBX 6 9 0 -1
BITMAP
D8
D8
00
00
00
00
00
00
00
ENDCHAR
STARTCHAR DIGIT TWO
ENCODING 50
SWIDTH 750 0
DWIDTH 6 0
BBX 6 9 0 -1
BITMAP
D8
D8
00
18
18
00
00
00
00
ENDCHAR
STARTCHAR DIGIT THREE
ENCODING 51
SWIDTH 750 0
DWIDTH 6 0
BBX 6 9 0 -1
BITMAP
D8
D8
00
18
18
00
18
18
00
ENDCHAR
STARTCHAR DIGIT FOUR
ENCODING 52
SWIDTH 750 0
DWIDTH 6 0
BBX 6 9 0 -1
BITMAP
D8
D8
C0
C0
C0
00
00
00
00
ENDCHAR
STARTCHAR DIGIT FIVE
ENCODING 53
SWIDTH 750 0
DWIDTH 6 0
BBX 6 9 0 -1
BITMAP
D8
D8
C0
D8
D8
00
00
00
00
ENDCHAR
STARTCHAR DIGIT SIX
ENCODING 54
SWIDTH 750 0
DWIDTH 6 0
BBX 6 9 0 -1
BITMAP
D8
D8
C0
D8
D8
00
18
18
00
ENDCHAR
STARTCHAR DIGIT SEVEN
ENCODING 55
SWIDTH 750 0
DWIDTH 6 0
BBX 6 9 0 -1
BITMAP
D8
D8
C0
C0
C0
C0
C0
C0
00
ENDCHAR
STARTCHAR DIGIT EIGHT
ENCODING 56
SWIDTH 750 0
DWIDTH 6 0
BBX 6 9 0 -1
BITMAP
D8
D8
C0
D8
D8
C0
C0
C0
00
ENDCHAR
STARTCHAR DIGIT NINE
ENCODING 57
SWIDTH 750 0
DWIDTH 6 0
BBX 6 9 0 -1
BITMAP
D8
D8
C0
D8
D8
C0
D8
D8
00
ENDCHAR
STARTCHAR COLON
ENCODING 58
SWIDTH 750 0
DWIDTH 6 0
BBX 6 9 0 -1
BITMAP
00
00
00
C0
E0
30
F8
F8
00
ENDCHAR
STARTCHAR SEMICOLON
ENCODING 59
SWIDTH 750 0
DWIDTH 6 0
BBX 6 9 0 -1
BITMAP
18
18
18
18
18
18
18
18
00
ENDCHAR
STARTCHAR QUESTION MARK
ENCODING 63
SWIDTH 750 0
DWIDTH 6 0
BBX 6 9 0 -1
BITMAP
E0
F0
D8
D8
18
30
60
C0
00
ENDCHAR
STARTCHAR LATIN CAPITAL LETTER A
ENCODING 65
SWIDTH 750 0
DWIDTH 6 0
BBX 6 9 0 -1
BITMAP
00
88
90
E0
00
E0
90
88
00
ENDCHAR
STARTCHAR char66
ENCODING 66
SWIDTH 750 0
DWIDTH 6 0
BBX 6 9 0 -1
BITMAP
00
70
88
A8
20
A8
88
70
00
ENDCHAR
STARTCHAR char67
ENCODING 67
SWIDTH 750 0
DWIDTH 6 0
BBX 6 9 0 -1
BITMAP
00
80
80
A8
A8
A8
08
08
00
ENDCHAR
STARTCHAR char68
ENCODING 68
SWIDTH 750 0
DWIDTH 6 0
BBX 6 9 0 -1
BITMAP
00
F8
08
78
10
20
40
80
00
ENDCHAR
STARTCHAR char69
ENCODING 69
SWIDTH 750 0
DWIDTH 6 0
BBX 6 9 0 -1
BITMAP
00
B8
B0
B0
B0
50
50
50
00
ENDCHAR
STARTCHAR char70
ENCODING 70
SWIDTH 750 0
DWIDTH 6 0
BBX 6 9 0 -1
BITMAP
00
28
28
70
A0
A0
A0
F8
00
ENDCHAR
STARTCHAR char71
ENCODING 71
SWIDTH 750 0
DWIDTH 6 0
BBX 6 9 0 -1
BITMAP
00
B8
A8
88
90
90
A0
C0
00
ENDCHAR
STARTCHAR char72
ENCODING 72
SWIDTH 750 0
DWIDTH 6 0
BBX 6 9 0 -1
BITMAP
00
F8
00
00
70
00
00
F8
00
ENDCHAR
STARTCHAR char73
ENCODING 73
SWIDTH 750 0
DWIDTH 6 0
BBX 6 9 0 -1
BITMAP
00
18
28
08
08
08
08
08
00
ENDCHAR
STARTCHAR char74
ENCODING 74
SWIDTH 750 0
DWIDTH 6 0
BBX 6 9 0 -1
BITMAP
00
18
28
C8
10
10
20
E0
00
ENDCHAR
STARTCHAR char75
ENCODING 75
SWIDTH 750 0
DWIDTH 6 0
BBX 6 9 0 -1
BITMAP
00
F8
08
08
08
08
08
F8
00
ENDCHAR
STARTCHAR char76
ENCODING 76
SWIDTH 750 0
DWIDTH 6 0
BBX 6 9 0 -1
BITMAP
00
08
08
08
88
48
28
18
00
ENDCHAR
STARTCHAR char77
ENCODING 77
SWIDTH 750 0
DWIDTH 6 0
BBX 6 9 0 -1
BITMAP
00
38
28
40
40
80
80
F8
00
ENDCHAR
STARTCHAR char78
ENCODING 78
SWIDTH 750 0
DWIDTH 6 0
BBX 6 9 0 -1
BITMAP
00
50
A8
A8
A8
E8
68
68
00
ENDCHAR
STARTCHAR char79
ENCODING 79
SWIDTH 750 0
DWIDTH 6 0
BBX 6 9 0 -1
BITMAP
00
70
50
50
88
88
88
F8
00
ENDCHAR
STARTCHAR char80
ENCODING 80
SWIDTH 750 0
DWIDTH 6 0
BBX 6 9 0 -1
BITMAP
00
68
A8
88
88
88
48
38
00
ENDCHAR
STARTCHAR char81
ENCODING 81
SWIDTH 750 0
DWIDTH 6 0
BBX 6 9 0 -1
BITMAP
00
F8
88
80
80
80
80
F0
00
ENDCHAR
STARTCHAR char68
ENCODING 82
SWIDTH 750 0
DWIDTH 6 0
BBX 6 9 0 -1
BITMAP
00
F8
08
08
10
20
40
80
00
ENDCHAR
STARTCHAR char83
ENCODING 83
SWIDTH 750 0
DWIDTH 6 0
BBX 6 9 0 -1
BITMAP
00
88
48
48
48
A8
68
38
00
ENDCHAR
STARTCHAR char84
ENCODING 84
SWIDTH 750 0
DWIDTH 6 0
BBX 6 9 0 -1
BITMAP
00
20
20
20
20
A8
70
20
00
ENDCHAR
STARTCHAR char85
ENCODING 85
SWIDTH 750 0
DWIDTH 6 0
BBX 6 9 0 -1
BITMAP
00
98
A8
88
88
88
88
F8
00
ENDCHAR
STARTCHAR char86
ENCODING 86
SWIDTH 750 0
DWIDTH 6 0
BBX 6 9 0 -1
BITMAP
00
88
88
50
20
20
20
20
00
ENDCHAR
STARTCHAR char87
ENCODING 87
SWIDTH 750 0
DWIDTH 6 0
BBX 6 9 0 -1
BITMAP
00
F8
88
88
88
88
88
F8
00
ENDCHAR
STARTCHAR char88
ENCODING 88
SWIDTH 750 0
DWIDTH 6 0
BBX 6 9 0 -1
BITMAP
00
20
50
50
50
88
88
F8
00
ENDCHAR
STARTCHAR char89
ENCODING 89
SWIDTH 750 0
DWIDTH 6 0
BBX 6 9 0 -1
BITMAP
00
C8
A8
88
50
50
20
20
00
ENDCHAR
STARTCHAR char90
ENCODING 90
SWIDTH 750 0
DWIDTH 6 0
BBX 6 9 0 -1
BITMAP
00
08
38
48
88
08
88
78
00
ENDCHAR
STARTCHAR LATIN CAPITAL LETTER A
ENCODING 97
SWIDTH 750 0
DWIDTH 6 0
BBX 6 9 0 -1
BITMAP
00
88
90
E0
00
E0
90
88
00
ENDCHAR
STARTCHAR char66
ENCODING 98
SWIDTH 750 0
DWIDTH 6 0
BBX 6 9 0 -1
BITMAP
00
70
88
A8
20
A8
88
70
00
ENDCHAR
STARTCHAR char67
ENCODING 99
SWIDTH 750 0
DWIDTH 6 0
BBX 6 9 0 -1
BITMAP
00
80
80
A8
A8
A8
08
08
00
ENDCHAR
STARTCHAR char68
ENCODING 100
SWIDTH 750 0
DWIDTH 6 0
BBX 6 9 0 -1
BITMAP
00
F8
08
78
10
20
40
80
00
ENDCHAR
STARTCHAR char69
ENCODING 101
SWIDTH 750 0
DWIDTH 6 0
BBX 6 9 0 -1
BITMAP
00
B8
B0
B0
B0
50
50
50
00
ENDCHAR
STARTCHAR char70
ENCODING 102
SWIDTH 750 0
DWIDTH 6 0
BBX 6 9 0 -1
BITMAP
00
28
28
70
A0
A0
A0
F8
00
ENDCHAR
STARTCHAR char71
ENCODING 103
SWIDTH 750 0
DWIDTH 6 0
BBX 6 9 0 -1
BITMAP
00
B8
A8
88
90
90
A0
C0
00
ENDCHAR
STARTCHAR char72
ENCODING 104
SWIDTH 750 0
DWIDTH 6 0
BBX 6 9 0 -1
BITMAP
00
F8
00
00
70
00
00
F8
00
ENDCHAR
STARTCHAR char73
ENCODING 105
SWIDTH 750 0
DWIDTH 6 0
BBX 6 9 0 -1
BITMAP
00
18
28
08
08
08
08
08
00
ENDCHAR
STARTCHAR char74
ENCODING 106
SWIDTH 750 0
DWIDTH 6 0
BBX 6 9 0 -1
BITMAP
00
18
28
C8
10
10
20
E0
00
ENDCHAR
STARTCHAR char75
ENCODING 107
SWIDTH 750 0
DWIDTH 6 0
BBX 6 9 0 -1
BITMAP
00
F8
08
08
08
08
08
F8
00
ENDCHAR
STARTCHAR char76
ENCODING 108
SWIDTH 750 0
DWIDTH 6 0
BBX 6 9 0 -1
BITMAP
00
08
08
08
88
48
28
18
00
ENDCHAR
STARTCHAR char77
ENCODING 109
SWIDTH 750 0
DWIDTH 6 0
BBX 6 9 0 -1
BITMAP
00
38
28
40
40
80
80
F8
00
ENDCHAR
STARTCHAR char78
ENCODING 110
SWIDTH 750 0
DWIDTH 6 0
BBX 6 9 0 -1
BITMAP
00
50
A8
A8
A8
E8
68
68
00
ENDCHAR
STARTCHAR char79
ENCODING 111
SWIDTH 750 0
DWIDTH 6 0
BBX 6 9 0 -1
BITMAP
00
70
50
50
88
88
88
F8
00
ENDCHAR
STARTCHAR char80
ENCODING 112
SWIDTH 750 0
DWIDTH 6 0
BBX 6 9 0 -1
BITMAP
00
68
A8
88
88
88
48
38
00
ENDCHAR
STARTCHAR char81
ENCODING 113
SWIDTH 750 0
DWIDTH 6 0
BBX 6 9 0 -1
BITMAP
00
F8
88
80
80
80
80
F0
00
ENDCHAR
STARTCHAR char68
ENCODING 114
SWIDTH 750 0
DWIDTH 6 0
BBX 6 9 0 -1
BITMAP
00
F8
08
08
10
20
40
80
00
ENDCHAR
STARTCHAR char83
ENCODING 115
SWIDTH 750 0
DWIDTH 6 0
BBX 6 9 0 -1
BITMAP
00
88
48
48
48
A8
68
38
00
ENDCHAR
STARTCHAR char84
ENCODING 116
SWIDTH 750 0
DWIDTH 6 0
BBX 6 9 0 -1
BITMAP
00
20
20
20
20
A8
70
20
00
ENDCHAR
STARTCHAR char85
ENCODING 117
SWIDTH 750 0
DWIDTH 6 0
BBX 6 9 0 -1
BITMAP
00
98
A8
88
88
88
88
F8
00
ENDCHAR
STARTCHAR char86
ENCODING 118
SWIDTH 750 0
DWIDTH 6 0
BBX 6 9 0 -1
BITMAP
00
88
88
50
20
20
20
20
00
ENDCHAR
STARTCHAR char87
ENCODING 119
SWIDTH 750 0
DWIDTH 6 0
BBX 6 9 0 -1
BITMAP
00
F8
88
88
88
88
88
F8
00
ENDCHAR
STARTCHAR char88
ENCODING 120
SWIDTH 750 0
DWIDTH 6 0
BBX 6 9 0 -1
BITMAP
00
20
50
50
50
88
88
F8
00
ENDCHAR
STARTCHAR char89
ENCODING 121
SWIDTH 750 0
DWIDTH 6 0
BBX 6 9 0 -1
BITMAP
00
C8
A8
88
50
50
20
20
00
ENDCHAR
STARTCHAR char90
ENCODING 122
SWIDTH 750 0
DWIDTH 6 0
BBX 6 9 0 -1
BITMAP
00
08
38
48
88
08
88
78
00
ENDCHAR
STARTCHAR <control>
ENCODING 127
SWIDTH 750 0
DWIDTH 6 0
BBX 6 9 0 -1
BITMAP
00
00
00
00
00
00
00
00
00
ENDCHAR
STARTCHAR NO-BREAK SPACE
ENCODING 160
SWIDTH 750 0
DWIDTH 6 0
BBX 6 9 0 -1
BITMAP
00
00
00
00
00
00
00
00
00
ENDCHAR
STARTCHAR INVERTED EXCLAMATION MARK
ENCODING 161
SWIDTH 750 0
DWIDTH 6 0
BBX 6 9 0 -1
BITMAP
00
00
00
00
00
00
00
00
00
ENDCHAR
STARTCHAR CENT SIGN
ENCODING 162
SWIDTH 750 0
DWIDTH 6 0
BBX 6 9 0 -1
BITMAP
00
00
00
00
00
00
00
00
00
ENDCHAR
STARTCHAR POUND SIGN
ENCODING 163
SWIDTH 750 0
DWIDTH 6 0
BBX 6 9 0 -1
BITMAP
00
00
00
00
00
00
00
00
00
ENDCHAR
STARTCHAR CURRENCY SIGN
ENCODING 164
SWIDTH 750 0
DWIDTH 6 0
BBX 6 9 0 -1
BITMAP
00
00
00
00
00
00
00
00
00
ENDCHAR
STARTCHAR YEN SIGN
ENCODING 165
SWIDTH 750 0
DWIDTH 6 0
BBX 6 9 0 -1
BITMAP
00
00
00
00
00
00
00
00
00
ENDCHAR
STARTCHAR BROKEN BAR
ENCODING 166
SWIDTH 750 0
DWIDTH 6 0
BBX 6 9 0 -1
BITMAP
00
00
00
00
00
00
00
00
00
ENDCHAR
STARTCHAR SECTION SIGN
ENCODING 167
SWIDTH 750 0
DWIDTH 6 0
BBX 6 9 0 -1
BITMAP
00
00
00
00
00
00
00
00
00
ENDCHAR
STARTCHAR DIAERESIS
ENCODING 168
SWIDTH 750 0
DWIDTH 6 0
BBX 6 9 0 -1
BITMAP
00
00
00
00
00
00
00
00
00
ENDCHAR
STARTCHAR COPYRIGHT SIGN
ENCODING 169
SWIDTH 750 0
DWIDTH 6 0
BBX 6 9 0 -1
BITMAP
00
00
00
00
00
00
00
00
00
ENDCHAR
STARTCHAR FEMININE ORDINAL INDICATOR
ENCODING 170
SWIDTH 750 0
DWIDTH 6 0
BBX 6 9 0 -1
BITMAP
00
00
00
00
00
00
00
00
00
ENDCHAR
STARTCHAR LEFT-POINTING DOUBLE ANGLE QUOTATION MARK
ENCODING 171
SWIDTH 750 0
DWIDTH 6 0
BBX 6 9 0 -1
BITMAP
00
00
00
00
00
00
00
00
00
ENDCHAR
STARTCHAR NOT SIGN
ENCODING 172
SWIDTH 750 0
DWIDTH 6 0
BBX 6 9 0 -1
BITMAP
00
00
00
00
00
00
00
00
00
ENDCHAR
STARTCHAR SOFT HYPHEN
ENCODING 173
SWIDTH 750 0
DWIDTH 6 0
BBX 6 9 0 -1
BITMAP
00
00
00
00
00
00
00
00
00
ENDCHAR
STARTCHAR REGISTERED SIGN
ENCODING 174
SWIDTH 750 0
DWIDTH 6 0
BBX 6 9 0 -1
BITMAP
00
00
00
00
00
00
00
00
00
ENDCHAR
STARTCHAR MACRON
ENCODING 175
SWIDTH 750 0
DWIDTH 6 0
BBX 6 9 0 -1
BITMAP
00
00
00
00
00
00
00
00
00
ENDCHAR
STARTCHAR DEGREE SIGN
ENCODING 176
SWIDTH 750 0
DWIDTH 6 0
BBX 6 9 0 -1
BITMAP
60
90
90
60
00
00
00
00
00
ENDCHAR
STARTCHAR PLUS-MINUS SIGN
ENCODING 177
SWIDTH 750 0
DWIDTH 6 0
BBX 6 9 0 -1
BITMAP
00
00
00
00
00
00
00
00
00
ENDCHAR
STARTCHAR SUPERSCRIPT TWO
ENCODING 178
SWIDTH 750 0
DWIDTH 6 0
BBX 6 9 0 -1
BITMAP
00
00
00
00
00
00
00
00
00
ENDCHAR
STARTCHAR SUPERSCRIPT THREE
ENCODING 179
SWIDTH 750 0
DWIDTH 6 0
BBX 6 9 0 -1
BITMAP
00
00
00
00
00
00
00
00
00
ENDCHAR
STARTCHAR ACUTE ACCENT
ENCODING 180
SWIDTH 750 0
DWIDTH 6 0
BBX 6 9 0 -1
BITMAP
00
00
00
00
00
00
00
00
00
ENDCHAR
STARTCHAR MICRO SIGN
ENCODING 181
SWIDTH 750 0
DWIDTH 6 0
BBX 6 9 0 -1
BITMAP
00
00
00
00
00
00
00
00
00
ENDCHAR
STARTCHAR PILCROW SIGN
ENCODING 182
SWIDTH 750 0
DWIDTH 6 0
BBX 6 9 0 -1
BITMAP
00
00
00
00
00
00
00
00
00
ENDCHAR
STARTCHAR MIDDLE DOT
ENCODING 183
SWIDTH 750 0
DWIDTH 6 0
BBX 6 9 0 -1
BITMAP
00
00
00
00
00
00
00
00
00
ENDCHAR
STARTCHAR CEDILLA
ENCODING 184
SWIDTH 750 0
DWIDTH 6 0
BBX 6 9 0 -1
BITMAP
00
00
00
00
00
00
00
00
00
ENDCHAR
STARTCHAR SUPERSCRIPT ONE
ENCODING 185
SWIDTH 750 0
DWIDTH 6 0
BBX 6 9 0 -1
BITMAP
00
00
00
00
00
00
00
00
00
ENDCHAR
STARTCHAR MASCULINE ORDINAL INDICATOR
ENCODING 186
SWIDTH 750 0
DWIDTH 6 0
BBX 6 9 0 -1
BITMAP
00
00
00
00
00
00
00
00
00
ENDCHAR
STARTCHAR RIGHT-POINTING DOUBLE ANGLE QUOTATION MARK
ENCODING 187
SWIDTH 750 0
DWIDTH 6 0
BBX 6 9 0 -1
BITMAP
00
00
00
00
00
00
00
00
00
ENDCHAR
STARTCHAR VULGAR FRACTION ONE QUARTER
ENCODING 188
SWIDTH 750 0
DWIDTH 6 0
BBX 6 9 0 -1
BITMAP
00
00
00
00
00
00
00
00
00
ENDCHAR
STARTCHAR VULGAR FRACTION ONE HALF
ENCODING 189
SWIDTH 750 0
DWIDTH 6 0
BBX 6 9 0 -1
BITMAP
00
00
00
00
00
00
00
00
00
ENDCHAR
STARTCHAR VULGAR FRACTION THREE QUARTERS
ENCODING 190
SWIDTH 750 0
DWIDTH 6 0
BBX 6 9 0 -1
BITMAP
00
00
00
00
00
00
00
00
00
ENDCHAR
STARTCHAR INVERTED QUESTION MARK
ENCODING 191
SWIDTH 750 0
DWIDTH 6 0
BBX 6 9 0 -1
BITMAP
00
00
00
00
00
00
00
00
00
ENDCHAR
STARTCHAR LATIN CAPITAL LETTER A WITH GRAVE
ENCODING 192
SWIDTH 750 0
DWIDTH 6 0
BBX 6 9 0 -1
BITMAP
00
00
00
00
00
00
00
00
00
ENDCHAR
STARTCHAR LATIN CAPITAL LETTER A WITH ACUTE
ENCODING 193
SWIDTH 750 0
DWIDTH 6 0
BBX 6 9 0 -1
BITMAP
00
00
00
00
00
00
00
00
00
ENDCHAR
STARTCHAR LATIN CAPITAL LETTER A WITH CIRCUMFLEX
ENCODING 194
SWIDTH 750 0
DWIDTH 6 0
BBX 6 9 0 -1
BITMAP
00
00
00
00
00
00
00
00
00
ENDCHAR
STARTCHAR LATIN CAPITAL LETTER A WITH TILDE
ENCODING 195
SWIDTH 750 0
DWIDTH 6 0
BBX 6 9 0 -1
BITMAP
00
00
00
00
00
00
00
00
00
ENDCHAR
STARTCHAR LATIN CAPITAL LETTER A WITH DIAERESIS
ENCODING 196
SWIDTH 750 0
DWIDTH 6 0
BBX 6 9 0 -1
BITMAP
00
00
00
00
00
00
00
00
00
ENDCHAR
STARTCHAR LATIN CAPITAL LETTER A WITH RING ABOVE
ENCODING 197
SWIDTH 750 0
DWIDTH 6 0
BBX 6 9 0 -1
BITMAP
00
00
00
00
00
00
00
00
00
ENDCHAR
STARTCHAR LATIN CAPITAL LETTER AE
ENCODING 198
SWIDTH 750 0
DWIDTH 6 0
BBX 6 9 0 -1
BITMAP
00
00
00
00
00
00
00
00
00
ENDCHAR
STARTCHAR LATIN CAPITAL LETTER C WITH CEDILLA
ENCODING 199
SWIDTH 750 0
DWIDTH 6 0
BBX 6 9 0 -1
BITMAP
00
00
00
00
00
00
00
00
00
ENDCHAR
STARTCHAR LATIN CAPITAL LETTER E WITH GRAVE
ENCODING 200
SWIDTH 750 0
DWIDTH 6 0
BBX 6 9 0 -1
BITMAP
00
00
00
00
00
00
00
00
00
ENDCHAR
STARTCHAR LATIN CAPITAL LETTER E WITH ACUTE
ENCODING 201
SWIDTH 750 0
DWIDTH 6 0
BBX 6 9 0 -1
BITMAP
00
00
00
00
00
00
00
00
00
ENDCHAR
STARTCHAR LATIN CAPITAL LETTER E WITH CIRCUMFLEX
ENCODING 202
SWIDTH 750 0
DWIDTH 6 0
BBX 6 9 0 -1
BITMAP
00
00
00
00
00
00
00
00
00
ENDCHAR
STARTCHAR LATIN CAPITAL LETTER E WITH DIAERESIS
ENCODING 203
SWIDTH 750 0
DWIDTH 6 0
BBX 6 9 0 -1
BITMAP
00
00
00
00
00
00
00
00
00
ENDCHAR
STARTCHAR LATIN CAPITAL LETTER I WITH GRAVE
ENCODING 204
SWIDTH 750 0
DWIDTH 6 0
BBX 6 9 0 -1
BITMAP
00
00
00
00
00
00
00
00
00
ENDCHAR
STARTCHAR LATIN CAPITAL LETTER I WITH ACUTE
ENCODING 205
SWIDTH 750 0
DWIDTH 6 0
BBX 6 9 0 -1
BITMAP
00
00
00
00
00
00
00
00
00
ENDCHAR
STARTCHAR LATIN CAPITAL LETTER I WITH CIRCUMFLEX
ENCODING 206
SWIDTH 750 0
DWIDTH 6 0
BBX 6 9 0 -1
BITMAP
00
00
00
00
00
00
00
00
00
ENDCHAR
STARTCHAR LATIN CAPITAL LETTER I WITH DIAERESIS
ENCODING 207
SWIDTH 750 0
DWIDTH 6 0
BBX 6 9 0 -1
BITMAP
00
00
00
00
00
00
00
00
00
ENDCHAR
STARTCHAR LATIN CAPITAL LETTER ETH
ENCODING 208
SWIDTH 750 0
DWIDTH 6 0
BBX 6 9 0 -1
BITMAP
00
00
00
00
00
00
00
00
00
ENDCHAR
STARTCHAR LATIN CAPITAL LETTER N WITH TILDE
ENCODING 209
SWIDTH 750 0
DWIDTH 6 0
BBX 6 9 0 -1
BITMAP
00
00
00
00
00
00
00
00
00
ENDCHAR
STARTCHAR LATIN CAPITAL LETTER O WITH GRAVE
ENCODING 210
SWIDTH 750 0
DWIDTH 6 0
BBX 6 9 0 -1
BITMAP
00
00
00
00
00
00
00
00
00
ENDCHAR
STARTCHAR LATIN CAPITAL LETTER O WITH ACUTE
ENCODING 211
SWIDTH 750 0
DWIDTH 6 0
BBX 6 9 0 -1
BITMAP
00
00
00
00
00
00
00
00
00
ENDCHAR
STARTCHAR LATIN CAPITAL LETTER O WITH CIRCUMFLEX
ENCODING 212
SWIDTH 750 0
DWIDTH 6 0
BBX 6 9 0 -1
BITMAP
00
00
00
00
00
00
00
00
00
ENDCHAR
STARTCHAR LATIN CAPITAL LETTER O WITH TILDE
ENCODING 213
SWIDTH 750 0
DWIDTH 6 0
BBX 6 9 0 -1
BITMAP
00
00
00
00
00
00
00
00
00
ENDCHAR
STARTCHAR LATIN CAPITAL LETTER O WITH DIAERESIS
ENCODING 214
SWIDTH 750 0
DWIDTH 6 0
BBX 6 9 0 -1
BITMAP
00
00
00
00
00
00
00
00
00
ENDCHAR
STARTCHAR MULTIPLICATION SIGN
ENCODING 215
SWIDTH 750 0
DWIDTH 6 0
BBX 6 9 0 -1
BITMAP
00
00
00
00
00
00
00
00
00
ENDCHAR
STARTCHAR LATIN CAPITAL LETTER O WITH STROKE
ENCODING 216
SWIDTH 750 0
DWIDTH 6 0
BBX 6 9 0 -1
BITMAP
00
00
00
00
00
00
00
00
00
ENDCHAR
STARTCHAR LATIN CAPITAL LETTER U WITH GRAVE
ENCODING 217
SWIDTH 750 0
DWIDTH 6 0
BBX 6 9 0 -1
BITMAP
00
00
00
00
00
00
00
00
00
ENDCHAR
STARTCHAR LATIN CAPITAL LETTER U WITH ACUTE
ENCODING 218
SWIDTH 750 0
DWIDTH 6 0
BBX 6 9 0 -1
BITMAP
00
00
00
00
00
00
00
00
00
ENDCHAR
STARTCHAR LATIN CAPITAL LETTER U WITH CIRCUMFLEX
ENCODING 219
SWIDTH 750 0
DWIDTH 6 0
BBX 6 9 0 -1
BITMAP
00
00
00
00
00
00
00
00
00
ENDCHAR
STARTCHAR LATIN CAPITAL LETTER U WITH DIAERESIS
ENCODING 220
SWIDTH 750 0
DWIDTH 6 0
BBX 6 9 0 -1
BITMAP
00
00
00
00
00
00
00
00
00
ENDCHAR
STARTCHAR LATIN CAPITAL LETTER Y WITH ACUTE
ENCODING 221
SWIDTH 750 0
DWIDTH 6 0
BBX 6 9 0 -1
BITMAP
00
00
00
00
00
00
00
00
00
ENDCHAR
STARTCHAR LATIN CAPITAL LETTER THORN
ENCODING 222
SWIDTH 750 0
DWIDTH 6 0
BBX 6 9 0 -1
BITMAP
00
00
00
00
00
00
00
00
00
ENDCHAR
STARTCHAR LATIN SMALL LETTER SHARP S
ENCODING 223
SWIDTH 750 0
DWIDTH 6 0
BBX 6 9 0 -1
BITMAP
00
00
00
00
00
00
00
00
00
ENDCHAR
STARTCHAR LATIN SMALL LETTER A WITH GRAVE
ENCODING 224
SWIDTH 750 0
DWIDTH 6 0
BBX 6 9 0 -1
BITMAP
00
00
00
00
00
00
00
00
00
ENDCHAR
STARTCHAR LATIN SMALL LETTER A WITH ACUTE
ENCODING 225
SWIDTH 750 0
DWIDTH 6 0
BBX 6 9 0 -1
BITMAP
00
00
00
00
00
00
00
00
00
ENDCHAR
STARTCHAR LATIN SMALL LETTER A WITH CIRCUMFLEX
ENCODING 226
SWIDTH 750 0
DWIDTH 6 0
BBX 6 9 0 -1
BITMAP
00
00
00
00
00
00
00
00
00
ENDCHAR
STARTCHAR LATIN SMALL LETTER A WITH TILDE
ENCODING 227
SWIDTH 750 0
DWIDTH 6 0
BBX 6 9 0 -1
BITMAP
00
00
00
00
00
00
00
00
00
ENDCHAR
STARTCHAR LATIN SMALL LETTER A WITH DIAERESIS
ENCODING 228
SWIDTH 750 0
DWIDTH 6 0
BBX 6 9 0 -1
BITMAP
00
00
00
00
00
00
00
00
00
ENDCHAR
STARTCHAR LATIN SMALL LETTER A WITH RING ABOVE
ENCODING 229
SWIDTH 750 0
DWIDTH 6 0
BBX 6 9 0 -1
BITMAP
00
00
00
00
00
00
00
00
00
ENDCHAR
STARTCHAR LATIN SMALL LETTER AE
ENCODING 230
SWIDTH 750 0
DWIDTH 6 0
BBX 6 9 0 -1
BITMAP
00
00
00
00
00
00
00
00
00
ENDCHAR
STARTCHAR LATIN SMALL LETTER C WITH CEDILLA
ENCODING 231
SWIDTH 750 0
DWIDTH 6 0
BBX 6 9 0 -1
BITMAP
00
00
00
00
00
00
00
00
00
ENDCHAR
STARTCHAR LATIN SMALL LETTER E WITH GRAVE
ENCODING 232
SWIDTH 750 0
DWIDTH 6 0
BBX 6 9 0 -1
BITMAP
00
00
00
00
00
00
00
00
00
ENDCHAR
STARTCHAR LATIN SMALL LETTER E WITH ACUTE
ENCODING 233
SWIDTH 750 0
DWIDTH 6 0
BBX 6 9 0 -1
BITMAP
00
00
00
00
00
00
00
00
00
ENDCHAR
STARTCHAR LATIN SMALL LETTER E WITH CIRCUMFLEX
ENCODING 234
SWIDTH 750 0
DWIDTH 6 0
BBX 6 9 0 -1
BITMAP
00
00
00
00
00
00
00
00
00
ENDCHAR
STARTCHAR LATIN SMALL LETTER E WITH DIAERESIS
ENCODING 235
SWIDTH 750 0
DWIDTH 6 0
BBX 6 9 0 -1
BITMAP
00
00
00
00
00
00
00
00
00
ENDCHAR
STARTCHAR LATIN SMALL LETTER I WITH GRAVE
ENCODING 236
SWIDTH 750 0
DWIDTH 6 0
BBX 6 9 0 -1
BITMAP
00
00
00
00
00
00
00
00
00
ENDCHAR
STARTCHAR LATIN SMALL LETTER I WITH ACUTE
ENCODING 237
SWIDTH 750 0
DWIDTH 6 0
BBX 6 9 0 -1
BITMAP
00
00
00
00
00
00
00
00
00
ENDCHAR
STARTCHAR LATIN SMALL LETTER I WITH CIRCUMFLEX
ENCODING 238
SWIDTH 750 0
DWIDTH 6 0
BBX 6 9 0 -1
BITMAP
00
00
00
00
00
00
00
00
00
ENDCHAR
STARTCHAR LATIN SMALL LETTER I WITH DIAERESIS
ENCODING 239
SWIDTH 750 0
DWIDTH 6 0
BBX 6 9 0 -1
BITMAP
00
00
00
00
00
00
00
00
00
ENDCHAR
STARTCHAR LATIN SMALL LETTER ETH
ENCODING 240
SWIDTH 750 0
DWIDTH 6 0
BBX 6 9 0 -1
BITMAP
00
00
00
00
00
00
00
00
00
ENDCHAR
STARTCHAR LATIN SMALL LETTER N WITH TILDE
ENCODING 241
SWIDTH 750 0
DWIDTH 6 0
BBX 6 9 0 -1
BITMAP
00
00
00
00
00
00
00
00
00
ENDCHAR
STARTCHAR LATIN SMALL LETTER O WITH GRAVE
ENCODING 242
SWIDTH 750 0
DWIDTH 6 0
BBX 6 9 0 -1
BITMAP
00
00
00
00
00
00
00
00
00
ENDCHAR
STARTCHAR LATIN SMALL LETTER O WITH ACUTE
ENCODING 243
SWIDTH 750 0
DWIDTH 6 0
BBX 6 9 0 -1
BITMAP
00
00
00
00
00
00
00
00
00
ENDCHAR
STARTCHAR LATIN SMALL LETTER O WITH CIRCUMFLEX
ENCODING 244
SWIDTH 750 0
DWIDTH 6 0
BBX 6 9 0 -1
BITMAP
00
00
00
00
00
00
00
00
00
ENDCHAR
STARTCHAR LATIN SMALL LETTER O WITH TILDE
ENCODING 245
SWIDTH 750 0
DWIDTH 6 0
BBX 6 9 0 -1
BITMAP
00
00
00
00
00
00
00
00
00
ENDCHAR
STARTCHAR LATIN SMALL LETTER O WITH DIAERESIS
ENCODING 246
SWIDTH 750 0
DWIDTH 6 0
BBX 6 9 0 -1
BITMAP
00
00
00
00
00
00
00
00
00
ENDCHAR
STARTCHAR DIVISION SIGN
ENCODING 247
SWIDTH 750 0
DWIDTH 6 0
BBX 6 9 0 -1
BITMAP
00
00
00
00
00
00
00
00
00
ENDCHAR
STARTCHAR LATIN SMALL LETTER O WITH STROKE
ENCODING 248
SWIDTH 750 0
DWIDTH 6 0
BBX 6 9 0 -1
BITMAP
00
00
00
00
00
00
00
00
00
ENDCHAR
STARTCHAR LATIN SMALL LETTER U WITH GRAVE
ENCODING 249
SWIDTH 750 0
DWIDTH 6 0
BBX 6 9 0 -1
BITMAP
00
00
00
00
00
00
00
00
00
ENDCHAR
STARTCHAR LATIN SMALL LETTER U WITH ACUTE
ENCODING 250
SWIDTH 750 0
DWIDTH 6 0
BBX 6 9 0 -1
BITMAP
00
00
00
00
00
00
00
00
00
ENDCHAR
STARTCHAR LATIN SMALL LETTER U WITH CIRCUMFLEX
ENCODING 251
SWIDTH 750 0
DWIDTH 6 0
BBX 6 9 0 -1
BITMAP
00
00
00
00
00
00
00
00
00
ENDCHAR
STARTCHAR LATIN SMALL LETTER U WITH DIAERESIS
ENCODING 252
SWIDTH 750 0
DWIDTH 6 0
BBX 6 9 0 -1
BITMAP
00
00
00
00
00
00
00
00
00
ENDCHAR
STARTCHAR LATIN SMALL LETTER Y WITH ACUTE
ENCODING 253
SWIDTH 750 0
DWIDTH 6 0
BBX 6 9 0 -1
BITMAP
00
00
00
00
00
00
00
00
00
ENDCHAR
STARTCHAR LATIN SMALL LETTER THORN
ENCODING 254
SWIDTH 750 0
DWIDTH 6 0
BBX 6 9 0 -1
BITMAP
00
00
00
00
00
00
00
00
00
ENDCHAR
STARTCHAR LATIN SMALL LETTER Y WITH DIAERESIS
ENCODING 255
SWIDTH 750 0
DWIDTH 6 0
BBX 6 9 0 -1
BITMAP
00
00
00
00
00
00
00
00
00
ENDCHAR
ENDFONT
